<svg width="932" height="401" viewBox="0 0 932 401" fill="none" xmlns="http://www.w3.org/2000/svg">
<rect width="932" height="401" fill="#1E1E1E"/>
<g filter="url(#filter0_d_0_1)">
<path d="M924.363 92.9369L898.034 66.6331C893.173 61.789 885.326 61.789 880.477 66.6331L722.612 224.345L647.523 148.786C642.674 143.942 634.827 143.942 629.966 148.786L603.637 175.09C598.788 179.946 598.788 187.786 603.637 192.63L713.741 303.367C718.59 308.211 726.449 308.211 731.298 303.367L924.363 110.477C929.212 105.645 929.212 97.781 924.363 92.9369Z" fill="white"/>
</g>
<path d="M200.156 0C226.678 0 252.175 5.18125 275.463 14.6328C298.625 24.0719 319.712 37.7802 337.565 54.6113C342.872 59.6535 347.788 64.9596 352.969 70.9111C358.136 76.7361 363.316 83.0655 368.497 89.6748C370.431 92.2654 372.377 94.842 374.31 97.4326C362.925 113.872 341.192 145.701 328.771 163.808C325.537 159.284 322.303 154.887 319.068 150.49C310.779 139.484 302.503 129.009 295.516 120.859C291.511 116.324 287.885 112.446 285.294 109.981C274.175 99.5065 261.099 91.0906 246.744 85.1406C232.379 79.3281 216.722 76.2187 200.156 76.0938C187.217 76.0938 174.924 78.1518 163.286 81.7783C151.636 85.4048 140.771 90.5734 130.814 97.3076C111.015 110.765 95.2328 129.654 85.7812 151.904C79.5781 166.79 76.0781 182.964 76.0781 200.174C76.0782 213.113 78.1487 225.394 81.6377 237.044C85.2627 248.694 90.5702 259.561 97.292 269.518C110.622 289.317 129.639 305.099 151.901 314.424C156.944 316.622 162.125 318.43 167.432 319.856C177.778 322.699 188.772 324.255 200.156 324.255C216.722 324.255 232.379 321.02 246.744 315.195C261.097 309.37 274.175 300.828 285.294 290.354C287.885 287.891 291.511 284.137 295.516 279.487C299.395 274.951 303.932 269.519 308.455 263.706C317.514 252.056 327.345 238.853 336.151 226.305C337.44 224.498 338.728 222.679 339.891 220.998C345.198 213.365 350.114 206.378 354.258 200.175C362.534 187.881 409.51 119.047 414.428 112.322C416.234 109.857 418.179 107.265 419.987 104.815C428.92 92.914 438.106 81.1378 447.026 70.916C452.081 64.9645 457.123 59.6574 462.43 54.6152C478.856 39.2138 498.011 26.2748 518.974 17.0889C520.78 16.1795 522.586 15.4074 524.533 14.6387C547.819 5.18723 573.307 0.00585938 599.841 0.00585938C620.538 0.00587732 640.59 3.11388 659.354 9.06543C678.244 14.8904 695.845 23.4329 711.753 34.1719C743.722 55.7796 769.08 86.306 784.344 122.279C784.471 122.581 784.596 122.883 784.722 123.186L723.689 184.146L722.777 183.229C721.845 176.386 720.354 169.74 718.347 163.292C714.733 151.656 709.427 140.789 702.692 130.82C689.375 111.02 670.345 95.2393 648.094 85.9268C633.35 79.5846 617.049 76.2217 599.841 76.0967C587.28 76.2232 575.252 78.0313 563.867 81.3906C560.242 82.5672 556.755 83.728 553.255 85.1436C538.9 91.0936 525.822 99.5094 514.703 109.984C512.114 112.447 508.488 116.2 504.481 120.862C500.602 125.386 496.065 130.821 491.542 136.646C482.483 148.283 472.653 161.611 463.846 174.033C462.558 175.852 461.269 177.658 460.094 179.339C454.798 186.97 390.484 281.293 385.568 288.154C383.762 290.606 381.818 293.07 380.01 295.534C371.077 307.437 361.891 319.202 352.971 329.424C347.791 335.375 342.875 340.821 337.567 345.736L337.442 345.862C319.588 362.553 298.626 376.264 275.464 385.716C252.178 395.153 226.68 400.334 200.158 400.334C179.461 400.334 159.408 397.226 140.646 391.401C121.756 385.45 104.154 376.922 88.1074 366.182C56.2778 344.575 30.9187 314.161 15.6562 278.061C5.55949 254.129 2.48824e-05 227.734 0 200.177C0 179.467 3.10821 159.541 8.93164 140.646C14.8832 121.881 23.4123 104.167 34.1514 88.2451C55.7592 56.2904 86.1736 30.9314 122.146 15.7939C146.203 5.5721 172.598 1.28549e-06 200.156 0ZM471.097 236.401C474.331 240.925 477.567 245.461 480.927 249.859C489.205 260.852 497.492 271.466 504.479 279.489C508.484 284.013 512.111 287.89 514.701 290.354C525.82 300.829 538.898 309.372 553.253 315.197C567.619 321.022 583.275 324.256 599.841 324.256C612.78 324.256 625.2 322.183 636.711 318.557C648.361 315.069 659.226 309.761 669.183 303.026C671.419 301.522 673.604 299.943 675.734 298.297L695.821 318.495L695.886 318.56C711.158 333.813 735.904 333.814 751.176 318.56V318.559L777.817 291.945C774.198 298.92 770.188 305.644 765.842 312.089C744.223 344.056 713.822 369.416 677.724 384.68C653.792 394.775 627.395 400.334 599.839 400.334C573.305 400.334 547.819 395.153 524.531 385.716C501.37 376.264 480.281 362.554 462.428 345.736C457.122 340.821 452.078 335.374 447.025 329.424C441.858 323.613 436.678 317.269 431.497 310.674C429.564 308.083 427.617 305.619 425.685 303.028C433.052 292.3 446.509 272.501 467.862 241.19C469.025 239.511 470.061 237.954 471.097 236.401ZM794.168 151.912C797.981 167.39 800 183.573 800 200.177C800 211.873 799.006 223.364 797.09 234.532L732.095 299.456L731.871 299.674C727.126 304.18 719.623 304.107 714.966 299.456L695.178 279.559C702.959 270.234 709.407 259.749 714.216 248.43C717.863 239.76 720.574 230.551 722.19 220.938L723.621 222.377L794.168 151.912Z" fill="white"/>
<defs>
<filter id="filter0_d_0_1" x="596" y="63" width="336" height="252" filterUnits="userSpaceOnUse" color-interpolation-filters="sRGB">
<feFlood flood-opacity="0" result="BackgroundImageFix"/>
<feColorMatrix in="SourceAlpha" type="matrix" values="0 0 0 0 0 0 0 0 0 0 0 0 0 0 0 0 0 0 127 0" result="hardAlpha"/>
<feOffset dy="4"/>
<feGaussianBlur stdDeviation="2"/>
<feComposite in2="hardAlpha" operator="out"/>
<feColorMatrix type="matrix" values="0 0 0 0 0 0 0 0 0 0 0 0 0 0 0 0 0 0 0.25 0"/>
<feBlend mode="normal" in2="BackgroundImageFix" result="effect1_dropShadow_0_1"/>
<feBlend mode="normal" in="SourceGraphic" in2="effect1_dropShadow_0_1" result="shape"/>
</filter>
</defs>
</svg>
